<mxfile host="app.diagrams.net" modified="2021-01-30T19:19:32.430Z" agent="5.0 (Windows)" etag="DmcCE0DZTSXZKRoxz1mn" version="14.2.9" type="github">
  <diagram id="C5RBs43oDa-KdzZeNtuy" name="Page-1">
    <mxGraphModel dx="1102" dy="423" grid="1" gridSize="10" guides="1" tooltips="1" connect="1" arrows="1" fold="1" page="1" pageScale="1" pageWidth="827" pageHeight="1169" math="0" shadow="0">
      <root>
        <mxCell id="WIyWlLk6GJQsqaUBKTNV-0" />
        <mxCell id="WIyWlLk6GJQsqaUBKTNV-1" parent="WIyWlLk6GJQsqaUBKTNV-0" />
        <mxCell id="c7xWbuESrhlYKkKJneNq-0" value="" style="rounded=0;whiteSpace=wrap;html=1;" vertex="1" parent="WIyWlLk6GJQsqaUBKTNV-1">
          <mxGeometry x="342.5" y="380" width="570" height="140" as="geometry" />
        </mxCell>
        <mxCell id="c7xWbuESrhlYKkKJneNq-1" value="" style="ellipse;whiteSpace=wrap;html=1;" vertex="1" parent="WIyWlLk6GJQsqaUBKTNV-1">
          <mxGeometry x="152.5" y="340" width="130" height="50" as="geometry" />
        </mxCell>
        <mxCell id="c7xWbuESrhlYKkKJneNq-2" value="CLIENTE" style="rounded=0;whiteSpace=wrap;html=1;" vertex="1" parent="WIyWlLk6GJQsqaUBKTNV-1">
          <mxGeometry x="372.5" y="420" width="120" height="60" as="geometry" />
        </mxCell>
        <mxCell id="c7xWbuESrhlYKkKJneNq-3" value="nombre_cliente" style="ellipse;whiteSpace=wrap;html=1;" vertex="1" parent="WIyWlLk6GJQsqaUBKTNV-1">
          <mxGeometry x="195" y="425" width="120" height="40" as="geometry" />
        </mxCell>
        <mxCell id="c7xWbuESrhlYKkKJneNq-4" value="nom_empresa" style="ellipse;whiteSpace=wrap;html=1;" vertex="1" parent="WIyWlLk6GJQsqaUBKTNV-1">
          <mxGeometry x="182.5" y="477.5" width="120" height="40" as="geometry" />
        </mxCell>
        <mxCell id="c7xWbuESrhlYKkKJneNq-5" value="" style="endArrow=none;html=1;entryX=0;entryY=0.5;entryDx=0;entryDy=0;exitX=1;exitY=0.5;exitDx=0;exitDy=0;" edge="1" parent="WIyWlLk6GJQsqaUBKTNV-1" source="c7xWbuESrhlYKkKJneNq-3" target="c7xWbuESrhlYKkKJneNq-2">
          <mxGeometry width="50" height="50" relative="1" as="geometry">
            <mxPoint x="352.5" y="510" as="sourcePoint" />
            <mxPoint x="422.5" y="470" as="targetPoint" />
          </mxGeometry>
        </mxCell>
        <mxCell id="c7xWbuESrhlYKkKJneNq-6" value="" style="endArrow=none;html=1;entryX=0;entryY=0.75;entryDx=0;entryDy=0;exitX=1;exitY=0;exitDx=0;exitDy=0;" edge="1" parent="WIyWlLk6GJQsqaUBKTNV-1" source="c7xWbuESrhlYKkKJneNq-4" target="c7xWbuESrhlYKkKJneNq-2">
          <mxGeometry width="50" height="50" relative="1" as="geometry">
            <mxPoint x="362.5" y="520" as="sourcePoint" />
            <mxPoint x="432.5" y="480" as="targetPoint" />
          </mxGeometry>
        </mxCell>
        <mxCell id="c7xWbuESrhlYKkKJneNq-7" value="AUDITORIA" style="rounded=0;whiteSpace=wrap;html=1;" vertex="1" parent="WIyWlLk6GJQsqaUBKTNV-1">
          <mxGeometry x="283.13" y="135" width="118.75" height="60" as="geometry" />
        </mxCell>
        <mxCell id="c7xWbuESrhlYKkKJneNq-8" value="" style="endArrow=none;html=1;exitX=0.25;exitY=0;exitDx=0;exitDy=0;entryX=0.5;entryY=1;entryDx=0;entryDy=0;" edge="1" parent="WIyWlLk6GJQsqaUBKTNV-1" source="c7xWbuESrhlYKkKJneNq-7" target="c7xWbuESrhlYKkKJneNq-64">
          <mxGeometry width="50" height="50" relative="1" as="geometry">
            <mxPoint x="150" y="-10" as="sourcePoint" />
            <mxPoint x="2.5" y="-50" as="targetPoint" />
          </mxGeometry>
        </mxCell>
        <mxCell id="c7xWbuESrhlYKkKJneNq-9" value="lider" style="rhombus;whiteSpace=wrap;html=1;" vertex="1" parent="WIyWlLk6GJQsqaUBKTNV-1">
          <mxGeometry x="732.5" y="562.5" width="90" height="80" as="geometry" />
        </mxCell>
        <mxCell id="c7xWbuESrhlYKkKJneNq-10" value="" style="endArrow=oval;html=1;strokeColor=#000000;strokeWidth=1;endFill=1;entryX=1;entryY=0.5;entryDx=0;entryDy=0;" edge="1" parent="WIyWlLk6GJQsqaUBKTNV-1" source="c7xWbuESrhlYKkKJneNq-54" target="c7xWbuESrhlYKkKJneNq-2">
          <mxGeometry width="50" height="50" relative="1" as="geometry">
            <mxPoint x="552.4999999999998" y="450" as="sourcePoint" />
            <mxPoint x="542.5" y="490" as="targetPoint" />
          </mxGeometry>
        </mxCell>
        <mxCell id="c7xWbuESrhlYKkKJneNq-11" value="" style="endArrow=none;html=1;entryX=0;entryY=1;entryDx=0;entryDy=0;exitX=0.734;exitY=-0.017;exitDx=0;exitDy=0;exitPerimeter=0;" edge="1" parent="WIyWlLk6GJQsqaUBKTNV-1" source="c7xWbuESrhlYKkKJneNq-12" target="c7xWbuESrhlYKkKJneNq-2">
          <mxGeometry width="50" height="50" relative="1" as="geometry">
            <mxPoint x="492.5" y="530" as="sourcePoint" />
            <mxPoint x="520.0699999999999" y="510" as="targetPoint" />
          </mxGeometry>
        </mxCell>
        <mxCell id="c7xWbuESrhlYKkKJneNq-12" value="&lt;u&gt;no_cliente&lt;/u&gt;" style="ellipse;whiteSpace=wrap;html=1;" vertex="1" parent="WIyWlLk6GJQsqaUBKTNV-1">
          <mxGeometry x="202.5" y="555" width="100" height="55" as="geometry" />
        </mxCell>
        <mxCell id="c7xWbuESrhlYKkKJneNq-13" value="AUDITOR" style="rounded=0;whiteSpace=wrap;html=1;" vertex="1" parent="WIyWlLk6GJQsqaUBKTNV-1">
          <mxGeometry x="762.5" y="420" width="120" height="60" as="geometry" />
        </mxCell>
        <mxCell id="c7xWbuESrhlYKkKJneNq-14" value="ap_paterno" style="ellipse;whiteSpace=wrap;html=1;" vertex="1" parent="WIyWlLk6GJQsqaUBKTNV-1">
          <mxGeometry x="42.5" y="425" width="90" height="40" as="geometry" />
        </mxCell>
        <mxCell id="c7xWbuESrhlYKkKJneNq-15" value="apmaterno" style="ellipse;whiteSpace=wrap;html=1;" vertex="1" parent="WIyWlLk6GJQsqaUBKTNV-1">
          <mxGeometry x="62.5" y="480" width="85" height="42.5" as="geometry" />
        </mxCell>
        <mxCell id="c7xWbuESrhlYKkKJneNq-16" value="nompila" style="ellipse;whiteSpace=wrap;html=1;" vertex="1" parent="WIyWlLk6GJQsqaUBKTNV-1">
          <mxGeometry x="40" y="362.5" width="95" height="45" as="geometry" />
        </mxCell>
        <mxCell id="c7xWbuESrhlYKkKJneNq-17" value="" style="endArrow=none;html=1;entryX=1;entryY=0.5;entryDx=0;entryDy=0;exitX=0;exitY=0;exitDx=0;exitDy=0;" edge="1" parent="WIyWlLk6GJQsqaUBKTNV-1" source="c7xWbuESrhlYKkKJneNq-3" target="c7xWbuESrhlYKkKJneNq-16">
          <mxGeometry width="50" height="50" relative="1" as="geometry">
            <mxPoint x="240.5" y="370" as="sourcePoint" />
            <mxPoint x="232.5" y="280" as="targetPoint" />
          </mxGeometry>
        </mxCell>
        <mxCell id="c7xWbuESrhlYKkKJneNq-18" value="" style="endArrow=none;html=1;entryX=1;entryY=0.5;entryDx=0;entryDy=0;exitX=0;exitY=0.5;exitDx=0;exitDy=0;" edge="1" parent="WIyWlLk6GJQsqaUBKTNV-1" source="c7xWbuESrhlYKkKJneNq-3" target="c7xWbuESrhlYKkKJneNq-14">
          <mxGeometry width="50" height="50" relative="1" as="geometry">
            <mxPoint x="332.5" y="280" as="sourcePoint" />
            <mxPoint x="382.5" y="230" as="targetPoint" />
          </mxGeometry>
        </mxCell>
        <mxCell id="c7xWbuESrhlYKkKJneNq-19" value="" style="endArrow=none;html=1;entryX=0;entryY=1;entryDx=0;entryDy=0;exitX=1;exitY=0.5;exitDx=0;exitDy=0;" edge="1" parent="WIyWlLk6GJQsqaUBKTNV-1" source="c7xWbuESrhlYKkKJneNq-15" target="c7xWbuESrhlYKkKJneNq-3">
          <mxGeometry width="50" height="50" relative="1" as="geometry">
            <mxPoint x="162.5" y="450" as="sourcePoint" />
            <mxPoint x="212.5" y="410" as="targetPoint" />
          </mxGeometry>
        </mxCell>
        <mxCell id="c7xWbuESrhlYKkKJneNq-20" value="teléfono" style="ellipse;whiteSpace=wrap;html=1;" vertex="1" parent="WIyWlLk6GJQsqaUBKTNV-1">
          <mxGeometry x="157.5" y="345" width="120" height="40" as="geometry" />
        </mxCell>
        <mxCell id="c7xWbuESrhlYKkKJneNq-21" value="" style="endArrow=none;html=1;entryX=1;entryY=1;entryDx=0;entryDy=0;exitX=0;exitY=0.25;exitDx=0;exitDy=0;" edge="1" parent="WIyWlLk6GJQsqaUBKTNV-1" source="c7xWbuESrhlYKkKJneNq-2" target="c7xWbuESrhlYKkKJneNq-1">
          <mxGeometry width="50" height="50" relative="1" as="geometry">
            <mxPoint x="392.5" y="420" as="sourcePoint" />
            <mxPoint x="442.5" y="370" as="targetPoint" />
          </mxGeometry>
        </mxCell>
        <mxCell id="c7xWbuESrhlYKkKJneNq-22" value="" style="endArrow=none;html=1;exitX=0;exitY=0;exitDx=0;exitDy=0;entryX=0.5;entryY=1;entryDx=0;entryDy=0;" edge="1" parent="WIyWlLk6GJQsqaUBKTNV-1" source="c7xWbuESrhlYKkKJneNq-2" target="c7xWbuESrhlYKkKJneNq-23">
          <mxGeometry width="50" height="50" relative="1" as="geometry">
            <mxPoint x="422.5" y="400" as="sourcePoint" />
            <mxPoint x="472.5" y="350" as="targetPoint" />
          </mxGeometry>
        </mxCell>
        <mxCell id="c7xWbuESrhlYKkKJneNq-23" value="dirección" style="ellipse;whiteSpace=wrap;html=1;" vertex="1" parent="WIyWlLk6GJQsqaUBKTNV-1">
          <mxGeometry x="200" y="270" width="110" height="35" as="geometry" />
        </mxCell>
        <mxCell id="c7xWbuESrhlYKkKJneNq-24" value="&lt;u&gt;no_empleado&lt;/u&gt;" style="ellipse;whiteSpace=wrap;html=1;" vertex="1" parent="WIyWlLk6GJQsqaUBKTNV-1">
          <mxGeometry x="962.5" y="330" width="90" height="40" as="geometry" />
        </mxCell>
        <mxCell id="c7xWbuESrhlYKkKJneNq-25" value="nombre" style="ellipse;whiteSpace=wrap;html=1;" vertex="1" parent="WIyWlLk6GJQsqaUBKTNV-1">
          <mxGeometry x="872.5" y="290" width="90" height="40" as="geometry" />
        </mxCell>
        <mxCell id="c7xWbuESrhlYKkKJneNq-26" value="puesto" style="ellipse;whiteSpace=wrap;html=1;" vertex="1" parent="WIyWlLk6GJQsqaUBKTNV-1">
          <mxGeometry x="972.5" y="380" width="90" height="40" as="geometry" />
        </mxCell>
        <mxCell id="c7xWbuESrhlYKkKJneNq-27" value="teléfono" style="ellipse;whiteSpace=wrap;html=1;" vertex="1" parent="WIyWlLk6GJQsqaUBKTNV-1">
          <mxGeometry x="992.5" y="442.5" width="90" height="40" as="geometry" />
        </mxCell>
        <mxCell id="c7xWbuESrhlYKkKJneNq-28" value="no_proyectos" style="ellipse;whiteSpace=wrap;html=1;" vertex="1" parent="WIyWlLk6GJQsqaUBKTNV-1">
          <mxGeometry x="992.5" y="497.5" width="90" height="40" as="geometry" />
        </mxCell>
        <mxCell id="c7xWbuESrhlYKkKJneNq-29" value="contraseña_empre" style="ellipse;whiteSpace=wrap;html=1;" vertex="1" parent="WIyWlLk6GJQsqaUBKTNV-1">
          <mxGeometry x="977.5" y="555" width="105" height="47.5" as="geometry" />
        </mxCell>
        <mxCell id="c7xWbuESrhlYKkKJneNq-30" value="ap_paterno" style="ellipse;whiteSpace=wrap;html=1;" vertex="1" parent="WIyWlLk6GJQsqaUBKTNV-1">
          <mxGeometry x="932.5" y="190" width="90" height="40" as="geometry" />
        </mxCell>
        <mxCell id="c7xWbuESrhlYKkKJneNq-31" value="apmaterno" style="ellipse;whiteSpace=wrap;html=1;" vertex="1" parent="WIyWlLk6GJQsqaUBKTNV-1">
          <mxGeometry x="862.5" y="222.5" width="85" height="42.5" as="geometry" />
        </mxCell>
        <mxCell id="c7xWbuESrhlYKkKJneNq-32" value="nompila" style="ellipse;whiteSpace=wrap;html=1;" vertex="1" parent="WIyWlLk6GJQsqaUBKTNV-1">
          <mxGeometry x="970" y="230" width="95" height="45" as="geometry" />
        </mxCell>
        <mxCell id="c7xWbuESrhlYKkKJneNq-33" value="" style="endArrow=none;html=1;entryX=0.5;entryY=1;entryDx=0;entryDy=0;exitX=0.363;exitY=0.032;exitDx=0;exitDy=0;exitPerimeter=0;" edge="1" parent="WIyWlLk6GJQsqaUBKTNV-1" source="c7xWbuESrhlYKkKJneNq-25" target="c7xWbuESrhlYKkKJneNq-31">
          <mxGeometry width="50" height="50" relative="1" as="geometry">
            <mxPoint x="1242.5" y="366" as="sourcePoint" />
            <mxPoint x="1232.5" y="320" as="targetPoint" />
          </mxGeometry>
        </mxCell>
        <mxCell id="c7xWbuESrhlYKkKJneNq-34" value="" style="endArrow=none;html=1;entryX=0.363;entryY=0.989;entryDx=0;entryDy=0;exitX=0.637;exitY=-0.011;exitDx=0;exitDy=0;exitPerimeter=0;entryPerimeter=0;" edge="1" parent="WIyWlLk6GJQsqaUBKTNV-1" source="c7xWbuESrhlYKkKJneNq-25" target="c7xWbuESrhlYKkKJneNq-30">
          <mxGeometry width="50" height="50" relative="1" as="geometry">
            <mxPoint x="1222.5" y="340" as="sourcePoint" />
            <mxPoint x="1272.5" y="290" as="targetPoint" />
          </mxGeometry>
        </mxCell>
        <mxCell id="c7xWbuESrhlYKkKJneNq-35" value="" style="endArrow=none;html=1;entryX=0;entryY=1;entryDx=0;entryDy=0;exitX=1;exitY=0;exitDx=0;exitDy=0;" edge="1" parent="WIyWlLk6GJQsqaUBKTNV-1" source="c7xWbuESrhlYKkKJneNq-25" target="c7xWbuESrhlYKkKJneNq-32">
          <mxGeometry width="50" height="50" relative="1" as="geometry">
            <mxPoint x="1412.5" y="340" as="sourcePoint" />
            <mxPoint x="1462.5" y="290" as="targetPoint" />
          </mxGeometry>
        </mxCell>
        <mxCell id="c7xWbuESrhlYKkKJneNq-36" value="&lt;u&gt;no_auditoria&lt;/u&gt;" style="ellipse;whiteSpace=wrap;html=1;" vertex="1" parent="WIyWlLk6GJQsqaUBKTNV-1">
          <mxGeometry x="135" y="150" width="95" height="45" as="geometry" />
        </mxCell>
        <mxCell id="c7xWbuESrhlYKkKJneNq-37" value="" style="endArrow=none;html=1;entryX=0.5;entryY=1;entryDx=0;entryDy=0;exitX=0.5;exitY=0;exitDx=0;exitDy=0;" edge="1" parent="WIyWlLk6GJQsqaUBKTNV-1" source="c7xWbuESrhlYKkKJneNq-7" target="c7xWbuESrhlYKkKJneNq-66">
          <mxGeometry width="50" height="50" relative="1" as="geometry">
            <mxPoint x="162.5" y="-80" as="sourcePoint" />
            <mxPoint x="317.50000000000773" as="targetPoint" />
          </mxGeometry>
        </mxCell>
        <mxCell id="c7xWbuESrhlYKkKJneNq-38" value="fecha_hora" style="ellipse;whiteSpace=wrap;html=1;" vertex="1" parent="WIyWlLk6GJQsqaUBKTNV-1">
          <mxGeometry x="522.5" y="180" width="110" height="40" as="geometry" />
        </mxCell>
        <mxCell id="c7xWbuESrhlYKkKJneNq-39" value="descripcion" style="ellipse;whiteSpace=wrap;html=1;" vertex="1" parent="WIyWlLk6GJQsqaUBKTNV-1">
          <mxGeometry x="732.5" y="230" width="110" height="40" as="geometry" />
        </mxCell>
        <mxCell id="c7xWbuESrhlYKkKJneNq-40" value="tipo_reunion" style="ellipse;whiteSpace=wrap;html=1;" vertex="1" parent="WIyWlLk6GJQsqaUBKTNV-1">
          <mxGeometry x="672.5" y="185" width="110" height="40" as="geometry" />
        </mxCell>
        <mxCell id="c7xWbuESrhlYKkKJneNq-41" value="ubicacion" style="ellipse;whiteSpace=wrap;html=1;" vertex="1" parent="WIyWlLk6GJQsqaUBKTNV-1">
          <mxGeometry x="452.5" y="250" width="110" height="40" as="geometry" />
        </mxCell>
        <mxCell id="c7xWbuESrhlYKkKJneNq-42" value="ARCHIVO" style="rounded=0;whiteSpace=wrap;html=1;" vertex="1" parent="WIyWlLk6GJQsqaUBKTNV-1">
          <mxGeometry x="462.5" y="680" width="120" height="60" as="geometry" />
        </mxCell>
        <mxCell id="c7xWbuESrhlYKkKJneNq-43" value="(1,1)" style="text;html=1;strokeColor=none;fillColor=none;align=center;verticalAlign=middle;whiteSpace=wrap;rounded=0;" vertex="1" parent="WIyWlLk6GJQsqaUBKTNV-1">
          <mxGeometry x="692.5" y="420" width="40" height="20" as="geometry" />
        </mxCell>
        <mxCell id="c7xWbuESrhlYKkKJneNq-44" value="(1,n)" style="text;html=1;strokeColor=none;fillColor=none;align=center;verticalAlign=middle;whiteSpace=wrap;rounded=0;" vertex="1" parent="WIyWlLk6GJQsqaUBKTNV-1">
          <mxGeometry x="502.5" y="420" width="40" height="20" as="geometry" />
        </mxCell>
        <mxCell id="c7xWbuESrhlYKkKJneNq-45" value="" style="endArrow=oval;html=1;exitX=0;exitY=0.5;exitDx=0;exitDy=0;endFill=1;entryX=0.032;entryY=1.007;entryDx=0;entryDy=0;entryPerimeter=0;" edge="1" parent="WIyWlLk6GJQsqaUBKTNV-1" source="c7xWbuESrhlYKkKJneNq-9" target="c7xWbuESrhlYKkKJneNq-13">
          <mxGeometry width="50" height="50" relative="1" as="geometry">
            <mxPoint x="522.5" y="600" as="sourcePoint" />
            <mxPoint x="572.5" y="550" as="targetPoint" />
          </mxGeometry>
        </mxCell>
        <mxCell id="c7xWbuESrhlYKkKJneNq-46" value="&lt;u&gt;no_archivo&lt;/u&gt;" style="ellipse;whiteSpace=wrap;html=1;" vertex="1" parent="WIyWlLk6GJQsqaUBKTNV-1">
          <mxGeometry x="301.88" y="790" width="100" height="50" as="geometry" />
        </mxCell>
        <mxCell id="c7xWbuESrhlYKkKJneNq-47" value="num_empleado" style="ellipse;whiteSpace=wrap;html=1;" vertex="1" parent="WIyWlLk6GJQsqaUBKTNV-1">
          <mxGeometry x="522.5" y="790" width="100" height="50" as="geometry" />
        </mxCell>
        <mxCell id="c7xWbuESrhlYKkKJneNq-48" value="descripcion" style="ellipse;whiteSpace=wrap;html=1;" vertex="1" parent="WIyWlLk6GJQsqaUBKTNV-1">
          <mxGeometry x="632.5" y="792.5" width="100" height="45" as="geometry" />
        </mxCell>
        <mxCell id="c7xWbuESrhlYKkKJneNq-49" value="nom_archivo" style="ellipse;whiteSpace=wrap;html=1;" vertex="1" parent="WIyWlLk6GJQsqaUBKTNV-1">
          <mxGeometry x="412.5" y="790" width="100" height="50" as="geometry" />
        </mxCell>
        <mxCell id="c7xWbuESrhlYKkKJneNq-50" value="nivel_usuario" style="ellipse;whiteSpace=wrap;html=1;" vertex="1" parent="WIyWlLk6GJQsqaUBKTNV-1">
          <mxGeometry x="902.5" y="602.5" width="110" height="40" as="geometry" />
        </mxCell>
        <mxCell id="c7xWbuESrhlYKkKJneNq-51" value="(1,1)" style="text;html=1;strokeColor=none;fillColor=none;align=center;verticalAlign=middle;whiteSpace=wrap;rounded=0;" vertex="1" parent="WIyWlLk6GJQsqaUBKTNV-1">
          <mxGeometry x="802.5" y="522.5" width="40" height="20" as="geometry" />
        </mxCell>
        <mxCell id="c7xWbuESrhlYKkKJneNq-52" value="(1,m)" style="text;html=1;strokeColor=none;fillColor=none;align=center;verticalAlign=middle;whiteSpace=wrap;rounded=0;" vertex="1" parent="WIyWlLk6GJQsqaUBKTNV-1">
          <mxGeometry x="712.5" y="522.5" width="40" height="20" as="geometry" />
        </mxCell>
        <mxCell id="c7xWbuESrhlYKkKJneNq-53" value="" style="endArrow=blockThin;html=1;entryX=0.25;entryY=1;entryDx=0;entryDy=0;exitX=1;exitY=0.5;exitDx=0;exitDy=0;endFill=1;" edge="1" parent="WIyWlLk6GJQsqaUBKTNV-1" source="c7xWbuESrhlYKkKJneNq-9" target="c7xWbuESrhlYKkKJneNq-13">
          <mxGeometry width="50" height="50" relative="1" as="geometry">
            <mxPoint x="712.5" y="570" as="sourcePoint" />
            <mxPoint x="792.5" y="510" as="targetPoint" />
          </mxGeometry>
        </mxCell>
        <mxCell id="c7xWbuESrhlYKkKJneNq-54" value="reunir" style="rhombus;whiteSpace=wrap;html=1;" vertex="1" parent="WIyWlLk6GJQsqaUBKTNV-1">
          <mxGeometry x="572.5" y="410" width="80" height="80" as="geometry" />
        </mxCell>
        <mxCell id="c7xWbuESrhlYKkKJneNq-55" value="" style="edgeStyle=orthogonalEdgeStyle;rounded=0;orthogonalLoop=1;jettySize=auto;html=1;endArrow=oval;endFill=1;" edge="1" parent="WIyWlLk6GJQsqaUBKTNV-1" source="c7xWbuESrhlYKkKJneNq-56" target="c7xWbuESrhlYKkKJneNq-7">
          <mxGeometry relative="1" as="geometry" />
        </mxCell>
        <mxCell id="c7xWbuESrhlYKkKJneNq-56" value="efectuar" style="rhombus;whiteSpace=wrap;html=1;" vertex="1" parent="WIyWlLk6GJQsqaUBKTNV-1">
          <mxGeometry x="372.5" y="260" width="80" height="80" as="geometry" />
        </mxCell>
        <mxCell id="c7xWbuESrhlYKkKJneNq-57" value="surgir" style="rhombus;whiteSpace=wrap;html=1;" vertex="1" parent="WIyWlLk6GJQsqaUBKTNV-1">
          <mxGeometry x="482.5" y="557.5" width="80" height="80" as="geometry" />
        </mxCell>
        <mxCell id="c7xWbuESrhlYKkKJneNq-58" value="" style="endArrow=oval;html=1;exitX=0.5;exitY=0;exitDx=0;exitDy=0;entryX=0.316;entryY=1.003;entryDx=0;entryDy=0;entryPerimeter=0;endFill=1;" edge="1" parent="WIyWlLk6GJQsqaUBKTNV-1" source="c7xWbuESrhlYKkKJneNq-57" target="c7xWbuESrhlYKkKJneNq-0">
          <mxGeometry width="50" height="50" relative="1" as="geometry">
            <mxPoint x="332.5" y="630" as="sourcePoint" />
            <mxPoint x="542.5" y="530" as="targetPoint" />
          </mxGeometry>
        </mxCell>
        <mxCell id="c7xWbuESrhlYKkKJneNq-59" value="" style="endArrow=blockThin;html=1;exitX=0.5;exitY=1;exitDx=0;exitDy=0;endFill=1;entryX=0.5;entryY=0;entryDx=0;entryDy=0;" edge="1" parent="WIyWlLk6GJQsqaUBKTNV-1" source="c7xWbuESrhlYKkKJneNq-57" target="c7xWbuESrhlYKkKJneNq-42">
          <mxGeometry width="50" height="50" relative="1" as="geometry">
            <mxPoint x="362.5" y="650" as="sourcePoint" />
            <mxPoint x="482.5" y="650" as="targetPoint" />
          </mxGeometry>
        </mxCell>
        <mxCell id="c7xWbuESrhlYKkKJneNq-60" value="" style="endArrow=none;html=1;exitX=0.5;exitY=0;exitDx=0;exitDy=0;" edge="1" parent="WIyWlLk6GJQsqaUBKTNV-1" source="c7xWbuESrhlYKkKJneNq-54" target="c7xWbuESrhlYKkKJneNq-38">
          <mxGeometry width="50" height="50" relative="1" as="geometry">
            <mxPoint x="622.5" y="340" as="sourcePoint" />
            <mxPoint x="672.5" y="290" as="targetPoint" />
          </mxGeometry>
        </mxCell>
        <mxCell id="c7xWbuESrhlYKkKJneNq-61" value="" style="endArrow=none;html=1;entryX=0;entryY=1;entryDx=0;entryDy=0;exitX=1;exitY=0;exitDx=0;exitDy=0;" edge="1" parent="WIyWlLk6GJQsqaUBKTNV-1" source="c7xWbuESrhlYKkKJneNq-54" target="c7xWbuESrhlYKkKJneNq-40">
          <mxGeometry width="50" height="50" relative="1" as="geometry">
            <mxPoint x="722.5" y="340" as="sourcePoint" />
            <mxPoint x="719.5" y="223" as="targetPoint" />
          </mxGeometry>
        </mxCell>
        <mxCell id="c7xWbuESrhlYKkKJneNq-62" value="" style="endArrow=none;html=1;entryX=0;entryY=1;entryDx=0;entryDy=0;exitX=0.875;exitY=0.4;exitDx=0;exitDy=0;exitPerimeter=0;" edge="1" parent="WIyWlLk6GJQsqaUBKTNV-1" source="c7xWbuESrhlYKkKJneNq-54" target="c7xWbuESrhlYKkKJneNq-39">
          <mxGeometry width="50" height="50" relative="1" as="geometry">
            <mxPoint x="732.5" y="360" as="sourcePoint" />
            <mxPoint x="782.5" y="310" as="targetPoint" />
          </mxGeometry>
        </mxCell>
        <mxCell id="c7xWbuESrhlYKkKJneNq-63" value="" style="endArrow=none;html=1;entryX=0.5;entryY=1;entryDx=0;entryDy=0;" edge="1" parent="WIyWlLk6GJQsqaUBKTNV-1" source="c7xWbuESrhlYKkKJneNq-54" target="c7xWbuESrhlYKkKJneNq-41">
          <mxGeometry width="50" height="50" relative="1" as="geometry">
            <mxPoint x="552.5" y="340" as="sourcePoint" />
            <mxPoint x="602.5" y="290" as="targetPoint" />
          </mxGeometry>
        </mxCell>
        <mxCell id="c7xWbuESrhlYKkKJneNq-64" value="" style="ellipse;whiteSpace=wrap;html=1;" vertex="1" parent="WIyWlLk6GJQsqaUBKTNV-1">
          <mxGeometry x="187.5" y="50" width="135" height="50" as="geometry" />
        </mxCell>
        <mxCell id="c7xWbuESrhlYKkKJneNq-65" value="tipo_auditoria" style="ellipse;whiteSpace=wrap;html=1;" vertex="1" parent="WIyWlLk6GJQsqaUBKTNV-1">
          <mxGeometry x="195" y="55" width="120" height="40" as="geometry" />
        </mxCell>
        <mxCell id="c7xWbuESrhlYKkKJneNq-66" value="no_cliente" style="ellipse;whiteSpace=wrap;html=1;" vertex="1" parent="WIyWlLk6GJQsqaUBKTNV-1">
          <mxGeometry x="332.5" y="40" width="100" height="50" as="geometry" />
        </mxCell>
        <mxCell id="c7xWbuESrhlYKkKJneNq-67" value="" style="endArrow=none;html=1;entryX=0;entryY=0.5;entryDx=0;entryDy=0;exitX=1;exitY=0.5;exitDx=0;exitDy=0;" edge="1" parent="WIyWlLk6GJQsqaUBKTNV-1" source="c7xWbuESrhlYKkKJneNq-36" target="c7xWbuESrhlYKkKJneNq-7">
          <mxGeometry width="50" height="50" relative="1" as="geometry">
            <mxPoint x="202.5" y="220" as="sourcePoint" />
            <mxPoint x="252.5" y="170" as="targetPoint" />
          </mxGeometry>
        </mxCell>
        <mxCell id="c7xWbuESrhlYKkKJneNq-68" value="" style="endArrow=oval;html=1;endFill=1;exitX=0.5;exitY=1;exitDx=0;exitDy=0;entryX=0.123;entryY=0;entryDx=0;entryDy=0;entryPerimeter=0;" edge="1" parent="WIyWlLk6GJQsqaUBKTNV-1" source="c7xWbuESrhlYKkKJneNq-56" target="c7xWbuESrhlYKkKJneNq-0">
          <mxGeometry width="50" height="50" relative="1" as="geometry">
            <mxPoint x="409.5" y="350" as="sourcePoint" />
            <mxPoint x="392.5" y="360" as="targetPoint" />
          </mxGeometry>
        </mxCell>
        <mxCell id="c7xWbuESrhlYKkKJneNq-69" value="" style="endArrow=none;html=1;entryX=0;entryY=1;entryDx=0;entryDy=0;exitX=0.5;exitY=0;exitDx=0;exitDy=0;" edge="1" parent="WIyWlLk6GJQsqaUBKTNV-1" source="c7xWbuESrhlYKkKJneNq-46" target="c7xWbuESrhlYKkKJneNq-42">
          <mxGeometry width="50" height="50" relative="1" as="geometry">
            <mxPoint x="342.5" y="770" as="sourcePoint" />
            <mxPoint x="392.5" y="720" as="targetPoint" />
          </mxGeometry>
        </mxCell>
        <mxCell id="c7xWbuESrhlYKkKJneNq-70" value="" style="endArrow=none;html=1;exitX=0.5;exitY=0;exitDx=0;exitDy=0;entryX=0.25;entryY=1;entryDx=0;entryDy=0;" edge="1" parent="WIyWlLk6GJQsqaUBKTNV-1" source="c7xWbuESrhlYKkKJneNq-49" target="c7xWbuESrhlYKkKJneNq-42">
          <mxGeometry width="50" height="50" relative="1" as="geometry">
            <mxPoint x="472.5" y="800" as="sourcePoint" />
            <mxPoint x="522.5" y="750" as="targetPoint" />
          </mxGeometry>
        </mxCell>
        <mxCell id="c7xWbuESrhlYKkKJneNq-71" value="" style="endArrow=none;html=1;entryX=0.75;entryY=1;entryDx=0;entryDy=0;exitX=0.5;exitY=0;exitDx=0;exitDy=0;" edge="1" parent="WIyWlLk6GJQsqaUBKTNV-1" source="c7xWbuESrhlYKkKJneNq-47" target="c7xWbuESrhlYKkKJneNq-42">
          <mxGeometry width="50" height="50" relative="1" as="geometry">
            <mxPoint x="552.5" y="790" as="sourcePoint" />
            <mxPoint x="602.5" y="740" as="targetPoint" />
          </mxGeometry>
        </mxCell>
        <mxCell id="c7xWbuESrhlYKkKJneNq-72" value="" style="endArrow=none;html=1;entryX=1;entryY=1;entryDx=0;entryDy=0;exitX=0.5;exitY=0;exitDx=0;exitDy=0;" edge="1" parent="WIyWlLk6GJQsqaUBKTNV-1" source="c7xWbuESrhlYKkKJneNq-48" target="c7xWbuESrhlYKkKJneNq-42">
          <mxGeometry width="50" height="50" relative="1" as="geometry">
            <mxPoint x="632.5" y="770" as="sourcePoint" />
            <mxPoint x="682.5" y="720" as="targetPoint" />
          </mxGeometry>
        </mxCell>
        <mxCell id="c7xWbuESrhlYKkKJneNq-73" value="" style="endArrow=none;html=1;exitX=1;exitY=0;exitDx=0;exitDy=0;entryX=0.5;entryY=1;entryDx=0;entryDy=0;" edge="1" parent="WIyWlLk6GJQsqaUBKTNV-1" source="c7xWbuESrhlYKkKJneNq-13" target="c7xWbuESrhlYKkKJneNq-25">
          <mxGeometry width="50" height="50" relative="1" as="geometry">
            <mxPoint x="922.5" y="440" as="sourcePoint" />
            <mxPoint x="972.5" y="390" as="targetPoint" />
          </mxGeometry>
        </mxCell>
        <mxCell id="c7xWbuESrhlYKkKJneNq-74" value="" style="endArrow=none;html=1;entryX=0;entryY=0.5;entryDx=0;entryDy=0;exitX=1;exitY=0.25;exitDx=0;exitDy=0;" edge="1" parent="WIyWlLk6GJQsqaUBKTNV-1" source="c7xWbuESrhlYKkKJneNq-13" target="c7xWbuESrhlYKkKJneNq-24">
          <mxGeometry width="50" height="50" relative="1" as="geometry">
            <mxPoint x="912.5" y="460" as="sourcePoint" />
            <mxPoint x="962.5" y="410" as="targetPoint" />
          </mxGeometry>
        </mxCell>
        <mxCell id="c7xWbuESrhlYKkKJneNq-75" value="" style="endArrow=none;html=1;entryX=0;entryY=0.5;entryDx=0;entryDy=0;exitX=1;exitY=0.5;exitDx=0;exitDy=0;" edge="1" parent="WIyWlLk6GJQsqaUBKTNV-1" source="c7xWbuESrhlYKkKJneNq-13" target="c7xWbuESrhlYKkKJneNq-26">
          <mxGeometry width="50" height="50" relative="1" as="geometry">
            <mxPoint x="902.5" y="490" as="sourcePoint" />
            <mxPoint x="952.5" y="440" as="targetPoint" />
          </mxGeometry>
        </mxCell>
        <mxCell id="c7xWbuESrhlYKkKJneNq-76" value="" style="endArrow=none;html=1;entryX=0;entryY=0.5;entryDx=0;entryDy=0;exitX=1;exitY=0.75;exitDx=0;exitDy=0;" edge="1" parent="WIyWlLk6GJQsqaUBKTNV-1" source="c7xWbuESrhlYKkKJneNq-13" target="c7xWbuESrhlYKkKJneNq-27">
          <mxGeometry width="50" height="50" relative="1" as="geometry">
            <mxPoint x="892.5" y="530" as="sourcePoint" />
            <mxPoint x="942.5" y="480" as="targetPoint" />
          </mxGeometry>
        </mxCell>
        <mxCell id="c7xWbuESrhlYKkKJneNq-77" value="" style="endArrow=none;html=1;entryX=0;entryY=0.5;entryDx=0;entryDy=0;exitX=1;exitY=1;exitDx=0;exitDy=0;" edge="1" parent="WIyWlLk6GJQsqaUBKTNV-1" source="c7xWbuESrhlYKkKJneNq-13" target="c7xWbuESrhlYKkKJneNq-28">
          <mxGeometry width="50" height="50" relative="1" as="geometry">
            <mxPoint x="842.5" y="560" as="sourcePoint" />
            <mxPoint x="892.5" y="510" as="targetPoint" />
          </mxGeometry>
        </mxCell>
        <mxCell id="c7xWbuESrhlYKkKJneNq-78" value="" style="endArrow=none;html=1;entryX=0;entryY=0.5;entryDx=0;entryDy=0;exitX=0.895;exitY=0.714;exitDx=0;exitDy=0;exitPerimeter=0;" edge="1" parent="WIyWlLk6GJQsqaUBKTNV-1" source="c7xWbuESrhlYKkKJneNq-0" target="c7xWbuESrhlYKkKJneNq-29">
          <mxGeometry width="50" height="50" relative="1" as="geometry">
            <mxPoint x="862.5" y="600" as="sourcePoint" />
            <mxPoint x="912.5" y="550" as="targetPoint" />
          </mxGeometry>
        </mxCell>
        <mxCell id="c7xWbuESrhlYKkKJneNq-79" value="" style="endArrow=none;html=1;entryX=0;entryY=0;entryDx=0;entryDy=0;exitX=0.615;exitY=1.027;exitDx=0;exitDy=0;exitPerimeter=0;" edge="1" parent="WIyWlLk6GJQsqaUBKTNV-1" source="c7xWbuESrhlYKkKJneNq-13" target="c7xWbuESrhlYKkKJneNq-50">
          <mxGeometry width="50" height="50" relative="1" as="geometry">
            <mxPoint x="862.5" y="600" as="sourcePoint" />
            <mxPoint x="912.5" y="550" as="targetPoint" />
          </mxGeometry>
        </mxCell>
        <mxCell id="c7xWbuESrhlYKkKJneNq-80" value="(n:1)" style="text;html=1;strokeColor=none;fillColor=none;align=center;verticalAlign=middle;whiteSpace=wrap;rounded=0;" vertex="1" parent="WIyWlLk6GJQsqaUBKTNV-1">
          <mxGeometry x="592.5" y="497.5" width="40" height="20" as="geometry" />
        </mxCell>
        <mxCell id="c7xWbuESrhlYKkKJneNq-81" value="(1,m)" style="text;html=1;strokeColor=none;fillColor=none;align=center;verticalAlign=middle;whiteSpace=wrap;rounded=0;" vertex="1" parent="WIyWlLk6GJQsqaUBKTNV-1">
          <mxGeometry x="532.5" y="522.5" width="40" height="20" as="geometry" />
        </mxCell>
        <mxCell id="c7xWbuESrhlYKkKJneNq-82" value="(n,1)" style="text;html=1;strokeColor=none;fillColor=none;align=center;verticalAlign=middle;whiteSpace=wrap;rounded=0;" vertex="1" parent="WIyWlLk6GJQsqaUBKTNV-1">
          <mxGeometry x="532.5" y="650" width="40" height="20" as="geometry" />
        </mxCell>
        <mxCell id="c7xWbuESrhlYKkKJneNq-83" value="(m:1)" style="text;html=1;strokeColor=none;fillColor=none;align=center;verticalAlign=middle;whiteSpace=wrap;rounded=0;" vertex="1" parent="WIyWlLk6GJQsqaUBKTNV-1">
          <mxGeometry x="572.5" y="582.5" width="40" height="20" as="geometry" />
        </mxCell>
        <mxCell id="c7xWbuESrhlYKkKJneNq-84" value="(0,m)" style="text;html=1;strokeColor=none;fillColor=none;align=center;verticalAlign=middle;whiteSpace=wrap;rounded=0;" vertex="1" parent="WIyWlLk6GJQsqaUBKTNV-1">
          <mxGeometry x="342.5" y="195" width="40" height="20" as="geometry" />
        </mxCell>
        <mxCell id="c7xWbuESrhlYKkKJneNq-85" value="(1,n)" style="text;html=1;strokeColor=none;fillColor=none;align=center;verticalAlign=middle;whiteSpace=wrap;rounded=0;" vertex="1" parent="WIyWlLk6GJQsqaUBKTNV-1">
          <mxGeometry x="422.5" y="345" width="40" height="20" as="geometry" />
        </mxCell>
        <mxCell id="c7xWbuESrhlYKkKJneNq-86" value="(m:n)" style="text;html=1;strokeColor=none;fillColor=none;align=center;verticalAlign=middle;whiteSpace=wrap;rounded=0;" vertex="1" parent="WIyWlLk6GJQsqaUBKTNV-1">
          <mxGeometry x="352.5" y="265" width="40" height="20" as="geometry" />
        </mxCell>
        <mxCell id="c7xWbuESrhlYKkKJneNq-87" value="(m:1)" style="text;html=1;strokeColor=none;fillColor=none;align=center;verticalAlign=middle;whiteSpace=wrap;rounded=0;" vertex="1" parent="WIyWlLk6GJQsqaUBKTNV-1">
          <mxGeometry x="757.5" y="642.5" width="40" height="20" as="geometry" />
        </mxCell>
        <mxCell id="c7xWbuESrhlYKkKJneNq-88" value="" style="endArrow=blockThin;html=1;strokeWidth=1;exitX=1;exitY=0.5;exitDx=0;exitDy=0;endFill=1;entryX=0;entryY=0.5;entryDx=0;entryDy=0;" edge="1" parent="WIyWlLk6GJQsqaUBKTNV-1" source="c7xWbuESrhlYKkKJneNq-54" target="c7xWbuESrhlYKkKJneNq-13">
          <mxGeometry width="50" height="50" relative="1" as="geometry">
            <mxPoint x="672.5" y="450" as="sourcePoint" />
            <mxPoint x="752.5" y="450" as="targetPoint" />
          </mxGeometry>
        </mxCell>
      </root>
    </mxGraphModel>
  </diagram>
</mxfile>
